<svg id="visual" viewBox="0 0 900 900" width="900" height="900" xmlns="http://www.w3.org/2000/svg" xmlns:xlink="http://www.w3.org/1999/xlink" version="1.1"><path d="M0 170L21.5 175.7C43 181.3 86 192.7 128.8 212.8C171.7 233 214.3 262 257.2 262C300 262 343 233 385.8 248.2C428.7 263.3 471.3 322.7 514.2 331C557 339.3 600 296.7 642.8 277.8C685.7 259 728.3 264 771.2 280.5C814 297 857 325 878.5 339L900 353L900 0L878.5 0C857 0 814 0 771.2 0C728.3 0 685.7 0 642.8 0C600 0 557 0 514.2 0C471.3 0 428.7 0 385.8 0C343 0 300 0 257.2 0C214.3 0 171.7 0 128.8 0C86 0 43 0 21.5 0L0 0Z" fill="#FBD232" stroke-linecap="round" stroke-linejoin="miter"></path></svg>