<svg xmlns="http://www.w3.org/2000/svg" xmlns:xlink="http://www.w3.org/1999/xlink" width="500" zoomAndPan="magnify" viewBox="0 0 375 374.999991" height="500" preserveAspectRatio="xMidYMid meet" version="1.0"><defs><g/><clipPath id="id1"><path d="M 151 149 L 203 149 L 203 197.363281 L 151 197.363281 Z M 151 149 " clip-rule="nonzero"/></clipPath><clipPath id="id2"><path d="M 126.222656 77.363281 L 248.472656 77.363281 L 248.472656 188 L 126.222656 188 Z M 126.222656 77.363281 " clip-rule="nonzero"/></clipPath></defs><path fill="#fbd232" d="M 184.308594 123.34375 L 176.339844 123.34375 L 176.339844 131.355469 L 184.308594 131.355469 L 184.308594 123.34375 " fill-opacity="1" fill-rule="nonzero"/><path fill="#fbd232" d="M 176.339844 144.84375 L 184.308594 144.84375 L 184.308594 136.835938 L 176.339844 136.835938 L 176.339844 144.84375 " fill-opacity="1" fill-rule="nonzero"/><g clip-path="url(#id1)"><path fill="#fbd232" d="M 169.390625 197.339844 L 181.054688 185.613281 C 186.726562 186.84375 192.890625 185.316406 197.335938 181.023438 C 201.578125 176.929688 203.371094 171.265625 202.726562 165.84375 L 191.566406 174.375 C 190.984375 174.816406 190.234375 174.957031 189.539062 174.746094 L 180.652344 172.054688 C 179.710938 171.769531 179.0625 170.910156 179.039062 169.921875 L 178.835938 160.59375 C 178.820312 159.863281 179.15625 159.171875 179.734375 158.730469 L 190.1875 150.738281 C 184.035156 148.835938 177.066406 150.328125 172.199219 155.226562 C 167.703125 159.746094 166.09375 166.066406 167.363281 171.878906 L 151.207031 188.117188 C 156.652344 192.148438 162.78125 195.296875 169.390625 197.339844 " fill-opacity="1" fill-rule="nonzero"/></g><path fill="#fbd232" d="M 198.355469 123.34375 L 190.390625 123.34375 L 190.390625 131.355469 L 198.355469 131.355469 L 198.355469 123.34375 " fill-opacity="1" fill-rule="nonzero"/><g clip-path="url(#id2)"><path fill="#fbd232" d="M 187.347656 77.347656 C 153.652344 77.347656 126.332031 104.816406 126.332031 138.699219 C 126.332031 158.625 135.792969 176.328125 150.4375 187.535156 L 150.4375 137.890625 L 135.144531 137.890625 L 187.347656 85.402344 L 239.550781 137.890625 L 224.261719 137.890625 L 224.261719 187.535156 C 238.902344 176.328125 248.363281 158.625 248.363281 138.699219 C 248.363281 104.816406 221.046875 77.347656 187.347656 77.347656 " fill-opacity="1" fill-rule="nonzero"/></g><path fill="#fbd232" d="M 190.390625 144.84375 L 198.355469 144.84375 L 198.355469 136.835938 L 190.390625 136.835938 L 190.390625 144.84375 " fill-opacity="1" fill-rule="nonzero"/><g fill="#1d2736" fill-opacity="1"><g transform="translate(95.105971, 225.243998)"><g><path d="M 14.984375 0.929688 L 18.742188 -0.601562 L 18.339844 -1.457031 L 12.148438 -9.082031 L 11.105469 -9.332031 L 10.414062 -9.457031 C 12.761719 -11.394531 14.671875 -13.714844 16.152344 -16.53125 L 18.039062 -16.53125 L 18.363281 -17.773438 L 15.476562 -17.773438 L 12.722656 -17.925781 L 12.421875 -16.917969 L 14.167969 -16.039062 C 12.949219 -13.503906 11.191406 -11.457031 9.230469 -9.660156 L 7.488281 -9.972656 L 7.488281 -16.554688 L 8.929688 -16.742188 L 9.183594 -18 L 7.261719 -17.773438 L 1.28125 -17.773438 L 0.929688 -16.757812 L 2.925781 -16.003906 L 2.925781 -1.21875 L 1.269531 -1.03125 L 0.980469 0.226562 L 3.191406 0 L 9.132812 0 L 9.496094 -1.015625 L 7.488281 -1.769531 L 7.488281 -8.339844 L 9.230469 -8.277344 Z M 14.984375 0.929688 "/></g></g></g><g fill="#1d2736" fill-opacity="1"><g transform="translate(117.353367, 225.243998)"><g><path d="M 19.042969 -16.554688 L 20.699219 -16.742188 L 20.988281 -18 L 18.777344 -17.773438 L 12.824219 -17.773438 L 12.472656 -16.757812 L 14.46875 -16.003906 L 14.46875 -9.695312 L 7.488281 -9.695312 L 7.488281 -16.554688 L 9.15625 -16.742188 L 9.433594 -18 L 7.222656 -17.773438 L 1.28125 -17.773438 L 0.929688 -16.757812 L 2.925781 -16.003906 L 2.925781 -1.21875 L 1.269531 -1.03125 L 0.980469 0.226562 L 3.191406 0 L 9.132812 0 L 9.496094 -1.015625 L 7.488281 -1.769531 L 7.488281 -8.203125 L 14.46875 -8.203125 L 14.46875 -1.21875 L 12.8125 -1.03125 L 12.523438 0.226562 L 14.734375 0 L 20.6875 0 L 21.039062 -1.015625 L 19.042969 -1.769531 Z M 19.042969 -16.554688 "/></g></g></g><g fill="#1d2736" fill-opacity="1"><g transform="translate(142.665377, 225.243998)"><g><path d="M 11.191406 -18.101562 L 5.777344 -16.757812 L 7.007812 -14.519531 L 1.808594 -1.21875 L 0.476562 -1.03125 L 0.25 0.226562 L 2.023438 0 L 5.550781 0 L 5.980469 -0.941406 L 3.578125 -1.644531 L 4.824219 -4.925781 L 11.292969 -4.925781 L 12.660156 -1.21875 L 10.777344 -1.03125 L 10.464844 0.226562 L 12.964844 0 L 18.839844 0 L 19.15625 -1.015625 L 17.359375 -1.769531 Z M 7.875 -12.949219 L 9.257812 -10.4375 L 10.738281 -6.417969 L 5.390625 -6.417969 Z M 7.875 -12.949219 "/></g></g></g><g fill="#1d2736" fill-opacity="1"><g transform="translate(165.427725, 225.243998)"><g><path d="M 2.925781 -17.773438 L 1.28125 -17.773438 L 0.929688 -16.757812 L 2.925781 -16.003906 L 2.925781 -1.21875 L 1.269531 -1.03125 L 0.980469 0.226562 L 3.191406 0 L 9.28125 0 C 13.390625 0 18.90625 -3.355469 18.90625 -9.859375 C 18.90625 -14.15625 15.964844 -16.78125 12.257812 -18.113281 Z M 7.488281 -1.519531 L 7.488281 -16.480469 L 9.898438 -16.78125 L 12.433594 -15.375 C 13.378906 -14.066406 14.332031 -11.105469 14.332031 -8.640625 C 14.332031 -4.472656 11.894531 -1.695312 9.859375 -1.042969 Z M 7.488281 -1.519531 "/></g></g></g><g fill="#1d2736" fill-opacity="1"><g transform="translate(188.453831, 225.243998)"><g><path d="M 11.191406 -18.101562 L 5.777344 -16.757812 L 7.007812 -14.519531 L 1.808594 -1.21875 L 0.476562 -1.03125 L 0.25 0.226562 L 2.023438 0 L 5.550781 0 L 5.980469 -0.941406 L 3.578125 -1.644531 L 4.824219 -4.925781 L 11.292969 -4.925781 L 12.660156 -1.21875 L 10.777344 -1.03125 L 10.464844 0.226562 L 12.964844 0 L 18.839844 0 L 19.15625 -1.015625 L 17.359375 -1.769531 Z M 7.875 -12.949219 L 9.257812 -10.4375 L 10.738281 -6.417969 L 5.390625 -6.417969 Z M 7.875 -12.949219 "/></g></g></g><g fill="#1d2736" fill-opacity="1"><g transform="translate(211.216174, 225.243998)"><g><path d="M 21.945312 -16.554688 L 23.601562 -16.742188 L 23.890625 -18 L 21.679688 -17.773438 L 18.164062 -17.773438 L 12.371094 -4.042969 L 6.808594 -18.0625 L 2.925781 -17.773438 L 1.28125 -17.773438 L 0.929688 -16.757812 L 2.925781 -16.003906 L 2.925781 -1.21875 L 1.269531 -1.03125 L 0.980469 0.226562 L 3.191406 0 L 6.066406 0 L 6.417969 -1.015625 L 4.421875 -1.769531 L 4.421875 -9.734375 L 4.207031 -12.609375 L 9.722656 0.125 L 12.449219 -0.351562 L 17.835938 -13.238281 L 17.371094 -9.671875 L 17.371094 -1.21875 L 15.714844 -1.03125 L 15.425781 0.226562 L 17.636719 0 L 23.589844 0 L 23.941406 -1.015625 L 21.945312 -1.769531 Z M 21.945312 -16.554688 "/></g></g></g><g fill="#1d2736" fill-opacity="1"><g transform="translate(239.429509, 225.243998)"><g><path d="M 11.191406 -18.101562 L 5.777344 -16.757812 L 7.007812 -14.519531 L 1.808594 -1.21875 L 0.476562 -1.03125 L 0.25 0.226562 L 2.023438 0 L 5.550781 0 L 5.980469 -0.941406 L 3.578125 -1.644531 L 4.824219 -4.925781 L 11.292969 -4.925781 L 12.660156 -1.21875 L 10.777344 -1.03125 L 10.464844 0.226562 L 12.964844 0 L 18.839844 0 L 19.15625 -1.015625 L 17.359375 -1.769531 Z M 7.875 -12.949219 L 9.257812 -10.4375 L 10.738281 -6.417969 L 5.390625 -6.417969 Z M 7.875 -12.949219 "/></g></g></g><g fill="#1d2736" fill-opacity="1"><g transform="translate(262.191852, 225.243998)"><g><path d="M 17.285156 -17.773438 L 0.414062 -17.773438 L 0.527344 -17.222656 C 0.652344 -15.5625 0.714844 -13.917969 0.703125 -12.273438 L 2.863281 -12.347656 L 4.03125 -16.605469 L 6.59375 -16.832031 L 6.59375 -1.21875 L 4.597656 -1.03125 L 4.257812 0.226562 L 6.910156 0 L 13.140625 0 L 13.566406 -1.015625 L 11.167969 -1.769531 L 11.167969 -16.832031 L 13.730469 -16.605469 L 14.859375 -12.347656 L 17.046875 -12.273438 C 16.996094 -13.828125 17.03125 -15.398438 17.160156 -16.957031 Z M 17.285156 -17.773438 "/></g></g></g><g fill="#1d2736" fill-opacity="1"><g transform="translate(156.812269, 243.968612)"><g><path d="M 10.078125 0 L 8.1875 0 L 8.1875 -5.46875 L 6.15625 -0.84375 L 4.765625 -0.84375 L 2.75 -5.46875 L 2.75 0 L 0.84375 0 L 0.84375 -8.421875 L 3.1875 -8.421875 L 5.46875 -3.40625 L 7.75 -8.421875 L 10.078125 -8.421875 Z M 10.078125 0 "/></g></g></g><g fill="#1d2736" fill-opacity="1"><g transform="translate(171.374429, 243.968612)"><g><path d="M 6.421875 -1.546875 L 2.75 -1.546875 L 2.140625 0 L -0.0625 0 L 3.5625 -8.40625 L 5.765625 -8.40625 L 9.3125 0 L 7.03125 0 Z M 5.796875 -3.171875 L 4.609375 -6.28125 L 3.375 -3.171875 Z M 5.796875 -3.171875 "/></g></g></g><g fill="#1d2736" fill-opacity="1"><g transform="translate(184.254959, 243.968612)"><g><path d="M 5.90625 0 L 4.65625 -2.359375 L 2.984375 -2.359375 L 2.984375 0 L 0.84375 0 L 0.84375 -8.40625 L 4.609375 -8.40625 C 5.710938 -8.40625 6.566406 -8.148438 7.171875 -7.640625 C 7.785156 -7.140625 8.09375 -6.421875 8.09375 -5.484375 C 8.09375 -4.179688 7.585938 -3.28125 6.578125 -2.78125 L 8.34375 0 Z M 2.984375 -4.046875 L 4.609375 -4.046875 C 5.066406 -4.046875 5.421875 -4.160156 5.671875 -4.390625 C 5.929688 -4.628906 6.0625 -4.96875 6.0625 -5.40625 C 6.0625 -5.84375 5.929688 -6.171875 5.671875 -6.390625 C 5.421875 -6.617188 5.066406 -6.734375 4.609375 -6.734375 L 2.984375 -6.734375 Z M 2.984375 -4.046875 "/></g></g></g><g fill="#1d2736" fill-opacity="1"><g transform="translate(196.582958, 243.968612)"><g><path d="M 4.828125 -8.484375 C 6.128906 -8.484375 7.210938 -8.078125 8.078125 -7.265625 C 8.953125 -6.453125 9.390625 -5.4375 9.390625 -4.21875 C 9.390625 -2.988281 8.953125 -1.960938 8.078125 -1.140625 C 7.210938 -0.316406 6.128906 0.09375 4.828125 0.09375 C 3.535156 0.09375 2.453125 -0.3125 1.578125 -1.125 C 0.710938 -1.945312 0.28125 -2.976562 0.28125 -4.21875 C 0.28125 -5.445312 0.710938 -6.460938 1.578125 -7.265625 C 2.453125 -8.078125 3.535156 -8.484375 4.828125 -8.484375 Z M 4.859375 -6.6875 C 4.203125 -6.6875 3.640625 -6.445312 3.171875 -5.96875 C 2.703125 -5.5 2.46875 -4.910156 2.46875 -4.203125 C 2.46875 -3.492188 2.703125 -2.894531 3.171875 -2.40625 C 3.640625 -1.925781 4.195312 -1.6875 4.84375 -1.6875 C 5.5 -1.6875 6.050781 -1.925781 6.5 -2.40625 C 6.957031 -2.894531 7.1875 -3.492188 7.1875 -4.203125 C 7.1875 -4.910156 6.957031 -5.5 6.5 -5.96875 C 6.050781 -6.445312 5.503906 -6.6875 4.859375 -6.6875 Z M 4.859375 -6.6875 "/></g></g></g><g fill="#1d2736" fill-opacity="1"><g transform="translate(209.883899, 243.968612)"><g><path d="M 4.78125 -8.484375 C 5.40625 -8.484375 6.019531 -8.351562 6.625 -8.09375 C 7.226562 -7.84375 7.742188 -7.5 8.171875 -7.0625 L 6.9375 -5.59375 C 6.664062 -5.9375 6.335938 -6.203125 5.953125 -6.390625 C 5.578125 -6.585938 5.195312 -6.6875 4.8125 -6.6875 C 4.15625 -6.6875 3.597656 -6.453125 3.140625 -5.984375 C 2.691406 -5.515625 2.46875 -4.9375 2.46875 -4.25 C 2.46875 -3.550781 2.691406 -2.960938 3.140625 -2.484375 C 3.597656 -2.015625 4.15625 -1.78125 4.8125 -1.78125 C 5.164062 -1.78125 5.53125 -1.867188 5.90625 -2.046875 C 6.289062 -2.222656 6.632812 -2.460938 6.9375 -2.765625 L 8.1875 -1.4375 C 7.726562 -0.976562 7.1875 -0.609375 6.5625 -0.328125 C 5.945312 -0.046875 5.328125 0.09375 4.703125 0.09375 C 3.441406 0.09375 2.390625 -0.316406 1.546875 -1.140625 C 0.703125 -1.960938 0.28125 -2.992188 0.28125 -4.234375 C 0.28125 -5.441406 0.707031 -6.453125 1.5625 -7.265625 C 2.425781 -8.078125 3.5 -8.484375 4.78125 -8.484375 Z M 4.78125 -8.484375 "/></g></g></g></svg>