<svg xmlns="http://www.w3.org/2000/svg" xmlns:xlink="http://www.w3.org/1999/xlink" width="500" zoomAndPan="magnify" viewBox="0 0 375 374.999991" height="500" preserveAspectRatio="xMidYMid meet" version="1.0"><defs><clipPath id="id1"><path d="M 81 223 L 233 223 L 233 361.808594 L 81 361.808594 Z M 81 223 " clip-rule="nonzero"/></clipPath><clipPath id="id2"><path d="M 9 13.058594 L 365.8125 13.058594 L 365.8125 334 L 9 334 Z M 9 13.058594 " clip-rule="nonzero"/></clipPath></defs><path fill="#fbd232" d="M 178.4375 146.691406 L 155.171875 146.691406 L 155.171875 169.972656 L 178.4375 169.972656 L 178.4375 146.691406 " fill-opacity="1" fill-rule="nonzero"/><path fill="#fbd232" d="M 155.171875 209.179688 L 178.4375 209.179688 L 178.4375 185.898438 L 155.171875 185.898438 L 155.171875 209.179688 " fill-opacity="1" fill-rule="nonzero"/><g clip-path="url(#id1)"><path fill="#fbd232" d="M 134.871094 361.742188 L 168.933594 327.65625 C 185.496094 331.238281 203.492188 326.800781 216.472656 314.328125 C 228.867188 302.421875 234.105469 285.96875 232.226562 270.203125 L 199.625 295.003906 C 197.933594 296.289062 195.734375 296.6875 193.707031 296.074219 L 167.757812 288.253906 C 165.011719 287.429688 163.113281 284.925781 163.050781 282.058594 L 162.460938 254.949219 C 162.414062 252.832031 163.386719 250.816406 165.074219 249.535156 L 195.605469 226.304688 C 177.640625 220.78125 157.292969 225.121094 143.074219 239.347656 C 129.949219 252.484375 125.246094 270.851562 128.949219 287.746094 L 81.777344 334.945312 C 97.671875 346.65625 115.570312 355.800781 134.871094 361.742188 " fill-opacity="1" fill-rule="nonzero"/></g><path fill="#fbd232" d="M 219.457031 146.691406 L 196.191406 146.691406 L 196.191406 169.972656 L 219.457031 169.972656 L 219.457031 146.691406 " fill-opacity="1" fill-rule="nonzero"/><g clip-path="url(#id2)"><path fill="#fbd232" d="M 187.3125 13.019531 C 88.910156 13.019531 9.140625 92.84375 9.140625 191.3125 C 9.140625 249.234375 36.761719 300.679688 79.523438 333.25 L 79.523438 188.964844 L 34.875 188.964844 L 187.3125 36.425781 L 339.753906 188.964844 L 295.105469 188.964844 L 295.105469 333.25 C 337.863281 300.679688 365.488281 249.234375 365.488281 191.3125 C 365.488281 92.84375 285.71875 13.019531 187.3125 13.019531 " fill-opacity="1" fill-rule="nonzero"/></g><path fill="#fbd232" d="M 196.191406 209.179688 L 219.457031 209.179688 L 219.457031 185.898438 L 196.191406 185.898438 L 196.191406 209.179688 " fill-opacity="1" fill-rule="nonzero"/></svg>